<?xml version="1.0" encoding="UTF-8" standalone="no"?>
<!-- Created with Inkscape (http://www.inkscape.org/) -->

<svg
   xmlns:dc="http://purl.org/dc/elements/1.1/"
   xmlns:cc="http://creativecommons.org/ns#"
   xmlns:rdf="http://www.w3.org/1999/02/22-rdf-syntax-ns#"
   xmlns:svg="http://www.w3.org/2000/svg"
   xmlns="http://www.w3.org/2000/svg"
   xmlns:sodipodi="http://sodipodi.sourceforge.net/DTD/sodipodi-0.dtd"
   xmlns:inkscape="http://www.inkscape.org/namespaces/inkscape"
   sodipodi:docname="subversion_logo.svg"
   inkscape:version="0.47 r22583"
   sodipodi:version="0.32"
   version="1.0"
   x="0.00000000"
   y="0.00000000"
   width="109.255"
   height="93.207001"
   viewBox="0 0 109.255 93.207"
   id="svg2"
   xml:space="preserve"
   inkscape:export-filename="/home/vm/デスクトップ/subversion_logo.png"
   inkscape:export-xdpi="90"
   inkscape:export-ydpi="90"><metadata
   id="metadata24"><rdf:RDF><cc:Work
       rdf:about=""><dc:format>image/svg+xml</dc:format><dc:type
         rdf:resource="http://purl.org/dc/dcmitype/StillImage" /><dc:title></dc:title></cc:Work></rdf:RDF></metadata><sodipodi:namedview
   inkscape:current-layer="svg2"
   inkscape:window-y="102"
   inkscape:window-x="37"
   inkscape:cy="47.041"
   inkscape:cx="99.283262"
   inkscape:zoom="3.6563848"
   id="base"
   pagecolor="#ffffff"
   bordercolor="#666666"
   borderopacity="1.0"
   inkscape:pageopacity="0.0"
   inkscape:pageshadow="2"
   inkscape:window-width="1393"
   inkscape:window-height="785"
   showgrid="false"
   inkscape:window-maximized="0" />
   <defs
   id="defs84"><inkscape:perspective
   sodipodi:type="inkscape:persp3d"
   inkscape:vp_x="0 : 47.041 : 1"
   inkscape:vp_y="0 : 1000 : 0"
   inkscape:vp_z="157.009 : 47.041 : 1"
   inkscape:persp3d-origin="78.504501 : 31.360667 : 1"
   id="perspective25" />

		
				
			
					
					
					
					
					
					
					
					
					
					
					
					
					
					
				</defs>

		
	<g
   id="g3686"
   transform="translate(-20.479001,-0.875)"><path
     id="path49"
     style="fill:#809cc9"
     d="m 129.438,0.875 -107.963,0 0,78.762 107.964,0 0,-78.762 -0.001,0 z" /><path
     id="path61"
     style="fill:#809cc9"
     d="m 27.712,87.417 c 0,0.433 -0.111,0.822 -0.334,1.167 -0.223,0.345 -0.549,0.615 -0.979,0.811 -0.429,0.195 -0.938,0.293 -1.525,0.293 -0.706,0 -1.288,-0.134 -1.746,-0.4 -0.326,-0.191 -0.591,-0.448 -0.794,-0.769 -0.204,-0.321 -0.306,-0.633 -0.306,-0.936 0,-0.176 0.061,-0.326 0.184,-0.452 0.121,-0.125 0.277,-0.188 0.466,-0.188 0.153,0 0.282,0.049 0.389,0.146 0.107,0.097 0.196,0.243 0.271,0.436 0.091,0.228 0.189,0.418 0.296,0.571 0.105,0.153 0.254,0.279 0.447,0.379 0.191,0.1 0.444,0.149 0.758,0.149 0.43,0 0.779,-0.101 1.048,-0.301 0.269,-0.2 0.403,-0.451 0.403,-0.75 0,-0.238 -0.072,-0.432 -0.218,-0.58 -0.145,-0.147 -0.332,-0.261 -0.562,-0.339 -0.23,-0.078 -0.537,-0.161 -0.922,-0.249 -0.515,-0.121 -0.945,-0.262 -1.293,-0.424 -0.347,-0.16 -0.622,-0.381 -0.825,-0.659 -0.204,-0.278 -0.306,-0.625 -0.306,-1.038 0,-0.395 0.107,-0.745 0.322,-1.051 0.215,-0.307 0.525,-0.542 0.932,-0.707 0.407,-0.164 0.885,-0.246 1.436,-0.246 0.438,0 0.818,0.055 1.139,0.163 0.32,0.109 0.587,0.255 0.798,0.435 0.212,0.182 0.366,0.371 0.464,0.57 0.098,0.198 0.146,0.393 0.146,0.581 0,0.173 -0.061,0.328 -0.182,0.467 -0.122,0.139 -0.273,0.208 -0.455,0.208 -0.165,0 -0.291,-0.042 -0.376,-0.125 -0.086,-0.083 -0.179,-0.219 -0.279,-0.408 -0.131,-0.271 -0.287,-0.481 -0.47,-0.633 -0.183,-0.152 -0.476,-0.227 -0.88,-0.227 -0.374,0 -0.677,0.082 -0.906,0.246 -0.229,0.165 -0.345,0.363 -0.345,0.594 0,0.144 0.039,0.268 0.117,0.372 0.078,0.104 0.186,0.193 0.322,0.269 0.136,0.076 0.275,0.134 0.416,0.176 0.141,0.043 0.371,0.104 0.694,0.186 0.402,0.095 0.767,0.199 1.093,0.313 0.326,0.114 0.604,0.252 0.832,0.415 0.229,0.163 0.408,0.369 0.536,0.618 0.128,0.249 0.194,0.556 0.194,0.917 z" /><path
     id="path63"
     style="fill:#809cc9"
     d="m 33.464,86.604 0,-3.444 c 0,-0.293 0.066,-0.513 0.198,-0.659 0.132,-0.146 0.306,-0.22 0.521,-0.22 0.226,0 0.404,0.073 0.536,0.22 0.132,0.147 0.198,0.367 0.198,0.661 l 0,3.529 c 0,0.401 0.045,0.736 0.134,1.006 0.089,0.27 0.247,0.479 0.475,0.627 0.227,0.148 0.545,0.223 0.954,0.223 0.564,0 0.963,-0.151 1.196,-0.453 0.233,-0.302 0.351,-0.76 0.351,-1.373 l 0,-3.559 c 0,-0.297 0.065,-0.519 0.195,-0.664 0.131,-0.145 0.305,-0.217 0.523,-0.217 0.218,0 0.396,0.072 0.531,0.217 0.135,0.146 0.203,0.366 0.203,0.663 l 0,3.448 c 0,0.561 -0.055,1.028 -0.164,1.403 -0.109,0.375 -0.315,0.705 -0.619,0.989 -0.26,0.238 -0.562,0.412 -0.906,0.521 -0.346,0.109 -0.748,0.165 -1.21,0.165 -0.55,0 -1.022,-0.061 -1.419,-0.179 C 34.765,89.389 34.44,89.205 34.19,88.956 33.94,88.707 33.756,88.388 33.639,87.998 33.522,87.61 33.464,87.145 33.464,86.604 z" /><path
     id="path65"
     style="fill:#809cc9"
     d="m 48.601,89.562 -2.19,0 c -0.316,0 -0.542,-0.071 -0.677,-0.213 -0.136,-0.142 -0.203,-0.367 -0.203,-0.676 l 0,-5.38 c 0,-0.315 0.069,-0.542 0.208,-0.681 0.138,-0.139 0.362,-0.207 0.672,-0.207 l 2.323,0 c 0.342,0 0.639,0.021 0.89,0.062 0.251,0.041 0.476,0.123 0.675,0.242 0.169,0.101 0.318,0.229 0.448,0.383 0.13,0.154 0.229,0.325 0.298,0.512 0.068,0.188 0.103,0.385 0.103,0.593 0,0.716 -0.357,1.239 -1.073,1.571 0.939,0.3 1.41,0.884 1.41,1.751 0,0.401 -0.103,0.763 -0.308,1.083 -0.205,0.321 -0.481,0.559 -0.829,0.712 -0.219,0.091 -0.47,0.154 -0.754,0.191 -0.284,0.039 -0.615,0.057 -0.993,0.057 z m -1.618,-6.078 0,1.859 1.33,0 c 0.361,0 0.641,-0.035 0.838,-0.104 0.197,-0.069 0.348,-0.199 0.453,-0.393 0.081,-0.137 0.122,-0.291 0.122,-0.461 0,-0.363 -0.129,-0.604 -0.387,-0.724 -0.257,-0.119 -0.65,-0.179 -1.178,-0.179 l -1.178,0 0,0.002 z m 1.511,2.891 -1.511,0 0,2.109 1.56,0 c 0.981,0 1.472,-0.357 1.472,-1.07 0,-0.364 -0.127,-0.629 -0.381,-0.793 -0.255,-0.164 -0.635,-0.246 -1.14,-0.246 z" /><path
     id="path67"
     style="fill:#3e3e3e;fill-opacity:1"
     d="m 58.295,83.232 1.618,4.799 1.624,-4.833 c 0.085,-0.254 0.147,-0.431 0.19,-0.529 0.042,-0.099 0.111,-0.188 0.209,-0.269 0.098,-0.081 0.231,-0.119 0.4,-0.119 0.123,0 0.238,0.03 0.344,0.092 0.105,0.062 0.188,0.145 0.248,0.247 0.061,0.103 0.091,0.206 0.091,0.311 0,0.071 -0.01,0.149 -0.029,0.231 -0.02,0.084 -0.044,0.165 -0.073,0.245 -0.029,0.079 -0.059,0.162 -0.088,0.246 l -1.73,4.681 c -0.062,0.179 -0.124,0.35 -0.186,0.511 -0.062,0.161 -0.133,0.303 -0.215,0.425 -0.081,0.122 -0.189,0.223 -0.324,0.301 -0.135,0.077 -0.3,0.117 -0.494,0.117 -0.195,0 -0.36,-0.039 -0.495,-0.115 -0.136,-0.076 -0.244,-0.178 -0.327,-0.303 -0.083,-0.125 -0.155,-0.268 -0.217,-0.428 -0.062,-0.159 -0.123,-0.329 -0.186,-0.508 l -1.701,-4.642 c -0.029,-0.084 -0.06,-0.167 -0.091,-0.249 -0.03,-0.081 -0.057,-0.169 -0.077,-0.264 -0.021,-0.094 -0.032,-0.174 -0.032,-0.239 0,-0.166 0.066,-0.317 0.2,-0.454 0.133,-0.137 0.301,-0.205 0.502,-0.205 0.247,0 0.422,0.075 0.524,0.227 0.102,0.152 0.208,0.392 0.315,0.724 z" /><path
     id="path69"
     style="fill:#3e3e3e;fill-opacity:1"
     d="m 73.338,83.516 -3.267,0 0,1.766 3.008,0 c 0.221,0 0.387,0.049 0.496,0.148 0.108,0.1 0.163,0.23 0.163,0.393 0,0.163 -0.054,0.296 -0.161,0.398 -0.107,0.102 -0.273,0.154 -0.498,0.154 l -3.008,0 0,2.047 3.379,0 c 0.228,0 0.399,0.052 0.516,0.156 0.115,0.105 0.173,0.244 0.173,0.418 0,0.168 -0.058,0.305 -0.173,0.409 -0.116,0.104 -0.288,0.157 -0.516,0.157 l -3.941,0 c -0.316,0 -0.544,-0.07 -0.683,-0.211 -0.139,-0.14 -0.208,-0.365 -0.208,-0.678 l 0,-5.38 c 0,-0.208 0.031,-0.378 0.093,-0.51 0.062,-0.132 0.159,-0.228 0.291,-0.288 0.132,-0.06 0.301,-0.09 0.507,-0.09 l 3.829,0 c 0.231,0 0.403,0.051 0.515,0.152 0.113,0.102 0.169,0.234 0.169,0.399 0,0.168 -0.056,0.303 -0.169,0.404 -0.112,0.105 -0.284,0.156 -0.515,0.156 z" /><path
     id="path71"
     style="fill:#3e3e3e;fill-opacity:1"
     d="m 81.732,86.5 -0.507,0 0,2.303 c 0,0.303 -0.066,0.525 -0.201,0.669 -0.133,0.144 -0.308,0.216 -0.523,0.216 -0.231,0 -0.41,-0.075 -0.538,-0.225 -0.127,-0.15 -0.19,-0.37 -0.19,-0.66 l 0,-5.508 c 0,-0.312 0.07,-0.539 0.21,-0.68 0.14,-0.14 0.366,-0.209 0.679,-0.209 l 2.357,0 c 0.325,0 0.604,0.014 0.835,0.041 0.23,0.027 0.439,0.083 0.625,0.166 0.224,0.095 0.423,0.23 0.595,0.406 0.173,0.176 0.304,0.38 0.393,0.612 0.09,0.233 0.135,0.479 0.135,0.74 0,0.534 -0.15,0.96 -0.451,1.279 -0.301,0.319 -0.758,0.546 -1.369,0.679 0.257,0.137 0.502,0.339 0.736,0.605 0.234,0.268 0.443,0.552 0.628,0.854 0.184,0.301 0.327,0.573 0.429,0.815 0.104,0.243 0.154,0.41 0.154,0.501 0,0.095 -0.03,0.188 -0.09,0.281 -0.061,0.093 -0.143,0.166 -0.247,0.22 -0.104,0.054 -0.224,0.081 -0.36,0.081 -0.163,0 -0.3,-0.039 -0.41,-0.115 -0.111,-0.076 -0.206,-0.174 -0.285,-0.291 -0.08,-0.117 -0.188,-0.29 -0.324,-0.519 l -0.581,-0.968 c -0.208,-0.355 -0.395,-0.625 -0.559,-0.812 -0.164,-0.186 -0.331,-0.312 -0.5,-0.381 -0.169,-0.069 -0.384,-0.1 -0.641,-0.1 z m 0.83,-3.016 -1.336,0 0,1.984 1.297,0 c 0.348,0 0.641,-0.031 0.878,-0.092 0.237,-0.061 0.419,-0.164 0.544,-0.31 0.125,-0.146 0.188,-0.348 0.188,-0.604 0,-0.2 -0.051,-0.377 -0.151,-0.529 -0.1,-0.152 -0.24,-0.267 -0.419,-0.343 -0.17,-0.07 -0.503,-0.106 -1.001,-0.106 z" /><path
     id="path73"
     style="fill:#3e3e3e;fill-opacity:1"
     d="m 96.914,87.417 c 0,0.433 -0.111,0.822 -0.334,1.167 -0.223,0.345 -0.549,0.615 -0.978,0.811 -0.43,0.195 -0.938,0.293 -1.527,0.293 -0.705,0 -1.287,-0.134 -1.745,-0.4 -0.326,-0.191 -0.591,-0.448 -0.794,-0.769 -0.204,-0.321 -0.306,-0.633 -0.306,-0.936 0,-0.176 0.062,-0.326 0.183,-0.452 0.123,-0.125 0.278,-0.188 0.467,-0.188 0.153,0 0.283,0.049 0.389,0.146 0.106,0.097 0.196,0.243 0.271,0.436 0.091,0.228 0.189,0.418 0.295,0.571 0.106,0.153 0.256,0.279 0.447,0.379 0.193,0.1 0.445,0.149 0.758,0.149 0.431,0 0.779,-0.101 1.049,-0.301 0.269,-0.2 0.403,-0.451 0.403,-0.75 0,-0.238 -0.072,-0.432 -0.218,-0.58 -0.145,-0.147 -0.332,-0.261 -0.562,-0.339 -0.229,-0.078 -0.536,-0.161 -0.921,-0.249 -0.515,-0.121 -0.945,-0.262 -1.292,-0.424 -0.348,-0.16 -0.623,-0.381 -0.826,-0.659 -0.204,-0.278 -0.306,-0.625 -0.306,-1.038 0,-0.395 0.107,-0.745 0.322,-1.051 0.215,-0.307 0.525,-0.542 0.932,-0.707 0.407,-0.164 0.886,-0.246 1.435,-0.246 0.439,0 0.819,0.055 1.14,0.163 0.32,0.109 0.587,0.255 0.798,0.435 0.212,0.182 0.366,0.371 0.464,0.57 0.098,0.198 0.146,0.393 0.146,0.581 0,0.173 -0.061,0.328 -0.183,0.467 -0.121,0.139 -0.272,0.208 -0.454,0.208 -0.165,0 -0.29,-0.042 -0.376,-0.125 -0.086,-0.083 -0.18,-0.219 -0.279,-0.408 -0.131,-0.271 -0.287,-0.481 -0.47,-0.633 -0.183,-0.152 -0.476,-0.227 -0.88,-0.227 -0.375,0 -0.677,0.082 -0.906,0.246 -0.23,0.165 -0.345,0.363 -0.345,0.594 0,0.144 0.039,0.268 0.117,0.372 0.078,0.104 0.186,0.193 0.323,0.269 0.137,0.075 0.275,0.134 0.415,0.176 0.14,0.043 0.371,0.104 0.694,0.186 0.402,0.095 0.767,0.199 1.093,0.313 0.326,0.114 0.604,0.252 0.833,0.415 0.229,0.163 0.406,0.369 0.535,0.618 0.129,0.25 0.193,0.556 0.193,0.917 z" /><path
     id="path75"
     style="fill:#3e3e3e;fill-opacity:1"
     d="m 102.713,88.803 0,-5.643 c 0,-0.293 0.066,-0.513 0.2,-0.659 0.134,-0.146 0.307,-0.22 0.52,-0.22 0.218,0 0.395,0.072 0.53,0.217 0.136,0.146 0.203,0.365 0.203,0.662 l 0,5.643 c 0,0.297 -0.067,0.518 -0.203,0.664 -0.136,0.146 -0.312,0.221 -0.53,0.221 -0.209,0 -0.382,-0.074 -0.517,-0.223 -0.136,-0.149 -0.203,-0.369 -0.203,-0.662 z" /><path
     id="path77"
     style="fill:#3e3e3e;fill-opacity:1"
     d="m 113.428,82.281 c 0.741,0 1.377,0.15 1.908,0.451 0.531,0.302 0.934,0.73 1.207,1.285 0.272,0.556 0.409,1.207 0.409,1.957 0,0.553 -0.075,1.057 -0.225,1.51 -0.149,0.452 -0.373,0.845 -0.672,1.177 -0.3,0.332 -0.667,0.587 -1.103,0.763 -0.436,0.175 -0.935,0.264 -1.496,0.264 -0.56,0 -1.06,-0.091 -1.501,-0.271 -0.442,-0.181 -0.812,-0.436 -1.107,-0.765 -0.295,-0.329 -0.519,-0.725 -0.67,-1.187 -0.151,-0.463 -0.227,-0.963 -0.227,-1.5 0,-0.551 0.078,-1.056 0.236,-1.515 0.158,-0.46 0.386,-0.851 0.686,-1.173 0.299,-0.322 0.662,-0.569 1.092,-0.74 0.43,-0.171 0.917,-0.256 1.463,-0.256 z m 2.055,3.684 c 0,-0.527 -0.084,-0.984 -0.254,-1.37 -0.168,-0.386 -0.409,-0.679 -0.723,-0.876 -0.313,-0.198 -0.674,-0.297 -1.079,-0.297 -0.289,0 -0.556,0.055 -0.802,0.164 -0.244,0.109 -0.456,0.27 -0.633,0.479 -0.177,0.209 -0.316,0.477 -0.419,0.803 -0.103,0.326 -0.153,0.691 -0.153,1.098 0,0.408 0.051,0.778 0.153,1.109 0.103,0.33 0.247,0.604 0.434,0.822 0.187,0.217 0.401,0.38 0.643,0.488 0.242,0.107 0.508,0.162 0.797,0.162 0.37,0 0.71,-0.094 1.021,-0.28 0.311,-0.186 0.557,-0.475 0.74,-0.864 0.184,-0.389 0.275,-0.87 0.275,-1.438 z" /><path
     id="path79"
     style="fill:#3e3e3e;fill-opacity:1"
     d="m 124.59,83.15 2.798,4.225 0,-4.264 c 0,-0.276 0.059,-0.484 0.178,-0.623 0.118,-0.139 0.277,-0.207 0.479,-0.207 0.208,0 0.371,0.068 0.492,0.207 0.119,0.139 0.18,0.346 0.18,0.623 l 0,5.633 c 0,0.629 -0.26,0.943 -0.78,0.943 -0.13,0 -0.247,-0.02 -0.351,-0.057 -0.104,-0.038 -0.202,-0.097 -0.293,-0.179 -0.091,-0.081 -0.176,-0.177 -0.254,-0.286 -0.078,-0.109 -0.155,-0.221 -0.233,-0.335 l -2.729,-4.175 0,4.199 c 0,0.274 -0.063,0.481 -0.19,0.621 -0.128,0.141 -0.29,0.211 -0.489,0.211 -0.205,0 -0.37,-0.071 -0.494,-0.213 -0.124,-0.142 -0.186,-0.348 -0.186,-0.618 l 0,-5.525 c 0,-0.234 0.025,-0.418 0.078,-0.552 0.062,-0.146 0.164,-0.267 0.309,-0.359 0.143,-0.093 0.298,-0.139 0.465,-0.139 0.13,0 0.242,0.021 0.335,0.063 0.093,0.042 0.174,0.099 0.244,0.171 0.07,0.072 0.142,0.164 0.216,0.278 0.071,0.116 0.146,0.235 0.225,0.358 z" /><path
     id="path81"
     style="fill:none;stroke:#809cc9"
     d="m 20.979,93.582 108.255,0" /><g
     id="text2866"
     style="font-size:144.45655823px;font-style:normal;font-variant:normal;font-weight:normal;font-stretch:normal;text-align:start;line-height:125%;writing-mode:lr-tb;text-anchor:start;fill:#ffffff;fill-opacity:1;stroke:none;font-family:'HGS行書体';-inkscape-font-specification:'HGS行書体'"
     transform="scale(1.7032767,0.58710366)"><path
       id="path3649"
       d="m 56.281822,11.252785 c 12.414172,-0.376084 18.997472,5.831028 19.74992,18.621353 l 0,3.949984 c -0.752448,2.257214 -1.692919,2.633403 -2.821417,1.128567 -5.266708,-5.266559 -8.8405,-8.276067 -10.721385,-9.028535 -2.633377,-1.128475 -5.454792,-1.692758 -8.464252,-1.69285 -3.385746,9.2e-5 -6.019066,0.940563 -7.899968,2.821417 -1.504795,1.504844 -2.257172,3.197692 -2.257134,5.078551 -3.8e-5,2.633404 3.385659,8.652421 10.157102,18.05707 5.266592,7.523837 8.652289,12.790477 10.157102,15.799936 3.385638,5.642879 5.078487,11.84999 5.078551,18.621353 -6.4e-5,9.404746 -2.633384,16.740419 -7.899968,22.007049 -5.266696,5.26665 -12.790468,7.89997 -22.571338,7.89997 -10.157124,0 -17.86899,-1.50475 -23.13562,-4.51426 -3.385708,-3.00951 -4.138085,-7.14758 -2.257134,-12.41424 1.128558,-1.880924 1.504747,-5.454716 1.128567,-10.721385 2.257122,4.890481 5.830914,8.276178 10.721385,10.157102 3.761866,1.504773 7.899941,2.25715 12.414236,2.257133 3.761853,1.7e-5 7.899928,-0.940454 12.414235,-2.821417 4.13803,-2.257112 6.583256,-6.58328 7.335685,-12.978519 -5.2e-5,-1.88091 -0.752429,-4.890419 -2.257134,-9.028535 C 53.272262,69.56212 49.886565,63.919291 44.996153,57.524026 41.610417,53.009822 38.412814,48.683654 35.403335,44.545507 33.522362,41.912259 32.581891,38.338468 32.581918,33.824122 c -2.7e-5,-5.642746 2.445198,-10.721292 7.335684,-15.235652 4.514229,-4.890354 9.968963,-7.33558 16.36422,-7.335685" /></g><g
     id="text3642"
     style="font-size:9.85164833px;font-style:normal;font-variant:normal;font-weight:normal;font-stretch:normal;text-align:start;line-height:125%;writing-mode:lr-tb;text-anchor:start;fill:#ffffff;fill-opacity:1;stroke:none;font-family:'ヒラギノ丸ゴ Pro';-inkscape-font-specification:'ヒラギノ丸ゴ Pro'"
     transform="scale(1.072167,0.93269051)"><path
       id="path3652"
       d="m 26.153522,79.547402 c 0.157626,-0.620653 0.285698,-1.458044 0.384214,-2.009736 0.08867,0.551692 0.197033,1.408786 0.354659,2.02944 l 1.13294,4.452945 c 0.08867,0.36451 0.35466,0.482731 0.650209,0.482731 0.315252,0 0.571395,-0.128072 0.669912,-0.47288 l 1.940774,-6.866598 c 0.0099,-0.03941 0.0197,-0.07881 0.0197,-0.11822 0,-0.216736 -0.187182,-0.334956 -0.413769,-0.374363 -0.03941,-0.0099 -0.08866,-0.0099 -0.128072,-0.0099 -0.216736,0 -0.384214,0.07881 -0.453176,0.315253 l -1.251159,4.709088 c -0.128071,0.48273 -0.275846,1.389083 -0.374363,1.921072 -0.08866,-0.512286 -0.216736,-1.438342 -0.344807,-1.930924 L 27.15839,77.104194 c -0.07881,-0.315253 -0.305402,-0.443325 -0.620654,-0.443325 -0.344807,0 -0.571396,0.128072 -0.650209,0.433473 l -1.182198,4.571165 c -0.137923,0.522137 -0.275846,1.418638 -0.364511,1.930923 -0.08866,-0.502434 -0.216736,-1.418638 -0.354659,-1.940775 l -1.241308,-4.679533 c -0.05911,-0.236439 -0.236439,-0.315253 -0.423621,-0.315253 -0.04926,0 -0.08866,0 -0.137923,0.0099 -0.236439,0.03941 -0.42362,0.157627 -0.42362,0.384214 0,0.03941 0.0099,0.08867 0.0197,0.137923 l 1.881665,6.827193 c 0.09852,0.354659 0.354659,0.482731 0.66006,0.482731 0.315253,0 0.551693,-0.118221 0.660061,-0.47288 l 1.172346,-4.4825" /><path
       id="path3654"
       d="m 33.434506,80.818265 3.388967,0 c 0.236439,0 0.384214,-0.187182 0.384214,-0.413769 0,-0.246291 -0.137923,-0.423621 -0.384214,-0.423621 l -3.388967,0 0,-2.058995 c 0,-0.236439 0.09852,-0.344807 0.344808,-0.344807 l 3.487483,0 c 0.256143,0 0.394066,-0.187182 0.394066,-0.433473 0,-0.246291 -0.137923,-0.423621 -0.394066,-0.423621 l -3.753478,0 c -0.699466,0 -1.004868,0.305402 -1.004868,1.063978 l 0,5.595737 c 0,0.758576 0.305402,1.063978 1.004868,1.063978 l 3.842143,0 c 0.256143,0 0.394066,-0.197034 0.394066,-0.433473 0,-0.246291 -0.137923,-0.433472 -0.394066,-0.433472 l -3.546593,0 c -0.226588,0 -0.374363,-0.08867 -0.374363,-0.315253 l 0,-2.443209" /><path
       id="path3656"
       d="m 42.383189,84.443672 c 1.527003,0 2.413653,-0.797985 2.413653,-2.137808 0,-1.073829 -0.522138,-1.73389 -1.527005,-1.940775 0.847241,-0.275846 1.261011,-0.827539 1.261011,-1.773296 0,-1.192049 -0.82754,-1.871814 -2.256028,-1.871814 l -2.344692,0 c -0.699466,0 -0.995016,0.305402 -0.995016,1.063978 l 0,5.595737 c 0,0.758576 0.29555,1.063978 0.995016,1.063978 l 2.453061,0 m -2.531874,-4.462797 0,-2.127956 c 0,-0.197033 0.09852,-0.315253 0.285698,-0.315253 l 2.068846,0 c 0.906351,0 1.369379,0.394067 1.369379,1.172346 0,0.797983 -0.492583,1.270863 -1.349676,1.270863 l -2.374247,0 m 0,0.807835 2.403802,0 c 1.014719,0 1.556561,0.492583 1.556561,1.418637 0,0.916203 -0.53199,1.408786 -1.536858,1.408786 l -2.108252,0 c -0.216736,0 -0.315253,-0.108368 -0.315253,-0.325104 l 0,-2.502319" /><path
       id="path3658"
       d="m 50.613317,82.177793 3.438225,0 0.778281,2.058994 c 0.06896,0.187181 0.236439,0.275846 0.413769,0.275846 0.05911,0 0.11822,-0.0099 0.17733,-0.02955 0.197032,-0.04926 0.354659,-0.197033 0.354659,-0.394066 0,-0.05911 -0.0099,-0.108368 -0.03941,-0.167478 L 53.03682,77.123902 c -0.128072,-0.334956 -0.384215,-0.463028 -0.699467,-0.463028 -0.315253,0 -0.561545,0.128072 -0.689616,0.463028 l -2.699351,6.777934 c -0.0197,0.05911 -0.02956,0.108368 -0.02956,0.167478 0,0.187181 0.147775,0.354659 0.344807,0.403918 0.07881,0.0197 0.137923,0.02956 0.206885,0.02956 0.167478,0 0.315253,-0.07881 0.384214,-0.275847 l 0.758577,-2.049142 m 0.305401,-0.827539 1.113236,-2.876681 c 0.128072,-0.295549 0.226588,-0.620654 0.315253,-0.95561 0.08867,0.334956 0.197033,0.660061 0.305401,0.945758 l 1.103385,2.886533 -2.837275,0" /><path
       id="path3660"
       d="m 60.727265,79.212446 c 0,0.216736 0.0197,0.512286 0.03941,0.738874 -0.344807,-0.709318 -0.896501,-1.142791 -1.822555,-1.142791 -1.467894,0 -2.374247,1.123089 -2.374247,2.856978 0,1.783146 0.916205,2.925939 2.364396,2.925939 0.926054,0 1.487599,-0.423621 1.822555,-1.123088 -0.0099,0.137923 -0.02955,0.35466 -0.02955,0.463028 l 0,0.206885 c 0,0.206884 0.137923,0.364511 0.433472,0.364511 0.275846,0 0.453176,-0.128072 0.453176,-0.394066 l 0,-7.053781 c 0,-0.265994 -0.167478,-0.394066 -0.443324,-0.394066 -0.256143,0 -0.443324,0.128072 -0.443324,0.394066 l 0,2.157511 m -1.664929,0.374363 c 1.093532,0 1.684632,0.88665 1.684632,2.098401 0,1.231455 -0.640358,2.137808 -1.684632,2.137808 -1.004867,0 -1.576264,-0.847243 -1.576264,-2.14766 0,-1.261009 0.571397,-2.088549 1.576264,-2.088549" /><path
       id="path3662"
       d="m 70.351401,80.7296 c 0,-1.2019 -0.47288,-1.91122 -1.635374,-1.91122 -1.103383,0 -1.458044,0.561545 -1.753593,1.083682 -0.128071,-0.689615 -0.600951,-1.083682 -1.477747,-1.083682 -0.965461,0 -1.389083,0.551693 -1.635374,1.142792 0.02955,-0.147775 0.06896,-0.344808 0.06896,-0.472879 l 0,-0.216737 c 0,-0.256142 -0.17733,-0.384214 -0.423621,-0.384214 -0.275846,0 -0.463028,0.128072 -0.463028,0.384214 l 0,4.83716 c 0,0.265994 0.17733,0.394066 0.453176,0.394066 0.256143,0 0.433473,-0.128072 0.433473,-0.394066 l 0,-2.876682 c 0,-0.325104 0.08866,-0.689615 0.265994,-0.95561 0.236439,-0.354659 0.561545,-0.66006 1.083681,-0.66006 0.709318,0 0.95561,0.47288 0.95561,1.320121 l 0,3.172231 c 0,0.265994 0.167479,0.394066 0.443325,0.394066 0.256142,0 0.443324,-0.128072 0.443324,-0.394066 l 0,-2.92594 c 0,-0.295549 0.11822,-0.689616 0.275846,-0.8965 0.236439,-0.354659 0.581248,-0.669912 1.103384,-0.669912 0.71917,0 0.95561,0.47288 0.95561,1.320121 l 0,3.172231 c 0,0.265994 0.167479,0.394066 0.443325,0.394066 0.265994,0 0.463027,-0.128072 0.463027,-0.394066 l 0,-3.379116" /><path
       id="path3664"
       d="m 71.728785,84.108716 c 0,0.265994 0.167478,0.394066 0.443324,0.394066 0.265994,0 0.453176,-0.128072 0.453176,-0.394066 l 0,-4.83716 c 0,-0.256142 -0.187182,-0.384214 -0.453176,-0.384214 -0.275846,0 -0.443324,0.128072 -0.443324,0.384214 l 0,4.83716 m 0.453176,-7.457698 c -0.374362,0 -0.679764,0.285698 -0.679764,0.66006 0,0.384214 0.305402,0.669912 0.679764,0.669912 0.364511,0 0.66006,-0.285698 0.66006,-0.669912 0,-0.374362 -0.295549,-0.66006 -0.66006,-0.66006" /><path
       id="path3666"
       d="m 78.618319,80.739452 c 0,-1.211752 -0.640359,-1.930923 -1.822555,-1.930923 -0.935906,0 -1.536858,0.443325 -1.881665,1.152643 0.0099,-0.187182 0.03941,-0.285698 0.03941,-0.41377 l 0,-0.275846 c 0,-0.256142 -0.177329,-0.384214 -0.433472,-0.384214 -0.275846,0 -0.463028,0.128072 -0.463028,0.384214 l 0,4.83716 c 0,0.265994 0.17733,0.394066 0.453176,0.394066 0.256143,0 0.443324,-0.128072 0.443324,-0.394066 l 0,-2.778165 c 0,-0.384214 0.09852,-0.679764 0.344808,-1.01472 0.344807,-0.463027 0.788133,-0.699467 1.320121,-0.699467 0.748725,0 1.083681,0.47288 1.083681,1.320121 l 0,3.172231 c 0,0.265994 0.187182,0.394066 0.453176,0.394066 0.265994,0 0.463028,-0.128072 0.463028,-0.394066 l 0,-3.369264" /><path
       id="path3668"
       d="m 80.002631,84.108716 c 0,0.265994 0.167478,0.394066 0.443324,0.394066 0.265994,0 0.453176,-0.128072 0.453176,-0.394066 l 0,-4.83716 c 0,-0.256142 -0.187182,-0.384214 -0.453176,-0.384214 -0.275846,0 -0.443324,0.128072 -0.443324,0.384214 l 0,4.83716 m 0.453176,-7.457698 c -0.374363,0 -0.679764,0.285698 -0.679764,0.66006 0,0.384214 0.305401,0.669912 0.679764,0.669912 0.36451,0 0.66006,-0.285698 0.66006,-0.669912 0,-0.374362 -0.29555,-0.66006 -0.66006,-0.66006" /><path
       id="path3670"
       d="m 84.458807,82.030018 c 0.906351,0.177329 1.162495,0.453176 1.162495,0.935906 0,0.502434 -0.522138,0.857094 -1.31027,0.857094 -0.788131,0 -1.192049,-0.29555 -1.369379,-0.866945 -0.05911,-0.187181 -0.236439,-0.265995 -0.423621,-0.265995 -0.03941,0 -0.08866,0.0099 -0.137923,0.0197 -0.197032,0.03941 -0.364511,0.177329 -0.364511,0.374362 0,0.03941 0.0099,0.07881 0.0197,0.128072 0.256142,0.886647 1.004869,1.389082 2.27573,1.389082 1.389081,0 2.196918,-0.699468 2.196918,-1.655077 0,-1.044274 -0.512287,-1.418638 -1.802852,-1.684632 l -0.610802,-0.128071 c -0.837389,-0.17733 -1.024571,-0.384215 -1.024571,-0.83739 0,-0.413769 0.374363,-0.738874 1.182198,-0.738874 0.561543,0 1.004868,0.226588 1.132939,0.669912 0.04926,0.187181 0.226588,0.265995 0.403918,0.265995 0.04926,0 0.108368,-0.0099 0.157626,-0.0197 0.17733,-0.04926 0.344808,-0.17733 0.344808,-0.364511 0,-0.03941 -0.0099,-0.07881 -0.0197,-0.118219 -0.246291,-0.729022 -0.945759,-1.19205 -2.049142,-1.19205 -1.280713,0 -2.058995,0.610803 -2.058995,1.517154 0,0.945757 0.512287,1.369379 1.73389,1.605819 l 0.561544,0.108368" /><path
       id="path3672"
       d="m 88.222756,78.946452 -0.768429,0 c -0.246291,0 -0.354659,0.167478 -0.354659,0.394066 0,0.236439 0.108368,0.394066 0.344808,0.394066 l 0.77828,0 0,3.398818 c 0,1.044274 0.5911,1.448193 1.408786,1.448193 0.42362,0 0.689615,-0.07881 0.985164,-0.216737 0.147775,-0.07881 0.206885,-0.216736 0.206885,-0.354659 0,-0.06896 -0.0099,-0.147775 -0.03941,-0.216736 -0.05911,-0.157626 -0.177329,-0.265995 -0.325104,-0.265995 -0.06896,0 -0.128071,0.0197 -0.187181,0.04926 -0.167478,0.108368 -0.334957,0.177329 -0.581248,0.177329 -0.36451,0 -0.571395,-0.216737 -0.571395,-0.699467 l 0,-3.320005 1.261011,0 c 0.246291,0 0.374362,-0.157627 0.374362,-0.394066 0,-0.23644 -0.11822,-0.394066 -0.374362,-0.394066 l -1.261011,0 0,-1.201901 c 0,-0.256143 -0.197033,-0.394066 -0.453176,-0.394066 -0.275846,0 -0.443324,0.137923 -0.443324,0.394066 l 0,1.201901" /><path
       id="path3674"
       d="m 91.781659,84.108716 c 0,0.265994 0.187182,0.394066 0.463028,0.394066 0.246291,0 0.443324,-0.128072 0.443324,-0.394066 l 0,-2.738759 c 0.0099,-0.413768 0.157627,-0.788132 0.423621,-1.103384 0.246291,-0.315253 0.571396,-0.531989 0.995016,-0.541841 0.206885,0 0.334957,0.02956 0.482731,0.05911 0.02956,0.0099 0.05911,0.0099 0.08867,0.0099 0.206884,0 0.344808,-0.17733 0.384214,-0.394066 0.0099,-0.05911 0.0197,-0.11822 0.0197,-0.167478 0,-0.187181 -0.08867,-0.325105 -0.315253,-0.35466 -0.137923,-0.02955 -0.246291,-0.04926 -0.403918,-0.04926 -0.06896,0 -0.137923,0 -0.216736,0.0099 -0.847241,0.02956 -1.359528,0.650209 -1.517154,1.123088 0.0197,-0.157627 0.05911,-0.325105 0.05911,-0.463028 l 0,-0.226588 c 0,-0.256142 -0.197033,-0.384214 -0.443324,-0.384214 -0.275846,0 -0.463028,0.128072 -0.463028,0.384214 l 0,4.83716" /><path
       id="path3676"
       d="m 99.284152,80.936485 c -1.063977,0.0197 -1.576264,0.07881 -2.127956,0.226588 -0.935905,0.256142 -1.49745,0.847242 -1.49745,1.783148 0,1.02457 0.669913,1.635374 1.763445,1.635374 0.975312,0 1.507302,-0.384215 1.881665,-0.807835 0.0099,0.197032 0.02956,0.374362 0.05911,0.492582 0.03941,0.177329 0.216737,0.23644 0.41377,0.23644 0.02956,0 0.05911,0 0.08866,0 0.246294,-0.0197 0.403924,-0.157627 0.403924,-0.315253 0,-0.02956 -0.01,-0.06896 -0.0197,-0.09852 -0.0591,-0.187181 -0.11822,-0.531989 -0.11822,-0.876796 l 0,-2.709204 c 0,-1.172345 -0.650209,-1.694483 -1.98018,-1.694483 -0.797983,0 -1.25116,0.167478 -1.595967,0.433472 -0.226588,0.17733 -0.482731,0.47288 -0.581248,0.778281 -0.0099,0.03941 -0.0197,0.07881 -0.0197,0.118219 0,0.17733 0.137923,0.315253 0.325105,0.374363 0.06896,0.02956 0.147774,0.03941 0.226587,0.03941 0.167478,0 0.315253,-0.06896 0.384215,-0.256143 0.167478,-0.453176 0.531989,-0.729022 1.251159,-0.729022 0.788131,0 1.142791,0.285698 1.142791,0.935906 l 0,0.433473 m 0,1.379231 c 0,0.374362 -0.06896,0.561544 -0.256143,0.797983 -0.325104,0.394066 -0.83739,0.709319 -1.458044,0.709319 -0.60095,0 -0.995016,-0.35466 -0.995016,-0.866945 0,-0.472879 0.206885,-0.788132 0.600951,-0.985165 0.403917,-0.197033 0.945759,-0.29555 2.108252,-0.325105 l 0,0.669913" /><path
       id="path3678"
       d="m 102.19209,78.946452 -0.76843,0 c -0.24629,0 -0.35466,0.167478 -0.35466,0.394066 0,0.236439 0.10837,0.394066 0.34481,0.394066 l 0.77828,0 0,3.398818 c 0,1.044274 0.5911,1.448193 1.40878,1.448193 0.42362,0 0.68962,-0.07881 0.98517,-0.216737 0.14777,-0.07881 0.20688,-0.216736 0.20688,-0.354659 0,-0.06896 -0.01,-0.147775 -0.0394,-0.216736 -0.0591,-0.157626 -0.17733,-0.265995 -0.3251,-0.265995 -0.069,0 -0.12807,0.0197 -0.18718,0.04926 -0.16748,0.108368 -0.33496,0.177329 -0.58125,0.177329 -0.36451,0 -0.57139,-0.216737 -0.57139,-0.699467 l 0,-3.320005 1.26101,0 c 0.24629,0 0.37436,-0.157627 0.37436,-0.394066 0,-0.23644 -0.11822,-0.394066 -0.37436,-0.394066 l -1.26101,0 0,-1.201901 c 0,-0.256143 -0.19704,-0.394066 -0.45318,-0.394066 -0.27585,0 -0.44332,0.137923 -0.44332,0.394066 l 0,1.201901" /><path
       id="path3680"
       d="m 105.61307,84.108716 c 0,0.265994 0.16747,0.394066 0.44332,0.394066 0.26599,0 0.45318,-0.128072 0.45318,-0.394066 l 0,-4.83716 c 0,-0.256142 -0.18719,-0.384214 -0.45318,-0.384214 -0.27585,0 -0.44332,0.128072 -0.44332,0.384214 l 0,4.83716 m 0.45317,-7.457698 c -0.37436,0 -0.67976,0.285698 -0.67976,0.66006 0,0.384214 0.3054,0.669912 0.67976,0.669912 0.36451,0 0.66006,-0.285698 0.66006,-0.669912 0,-0.374362 -0.29555,-0.66006 -0.66006,-0.66006" /><path
       id="path3682"
       d="m 110.24658,78.808529 c -1.60582,0 -2.57128,1.162496 -2.57128,2.876681 0,1.763443 0.95561,2.916088 2.59098,2.916088 1.54671,0 2.50232,-1.192051 2.50232,-2.916088 0,-1.724037 -0.93591,-2.876681 -2.52202,-2.876681 m 0.0296,0.768428 c 1.01472,0 1.57626,0.847243 1.57626,2.098401 0,1.32012 -0.56154,2.167363 -1.64522,2.167363 -1.02457,0 -1.61567,-0.866946 -1.61567,-2.127956 0,-1.32012 0.6108,-2.137808 1.68463,-2.137808" /><path
       id="path3684"
       d="m 118.48671,80.739452 c 0,-1.211752 -0.64036,-1.930923 -1.82255,-1.930923 -0.93591,0 -1.53686,0.443325 -1.88167,1.152643 0.01,-0.187182 0.0394,-0.285698 0.0394,-0.41377 l 0,-0.275846 c 0,-0.256142 -0.17733,-0.384214 -0.43347,-0.384214 -0.27585,0 -0.46303,0.128072 -0.46303,0.384214 l 0,4.83716 c 0,0.265994 0.17733,0.394066 0.45317,0.394066 0.25615,0 0.44333,-0.128072 0.44333,-0.394066 l 0,-2.778165 c 0,-0.384214 0.0985,-0.679764 0.34481,-1.01472 0.3448,-0.463027 0.78813,-0.699467 1.32012,-0.699467 0.74872,0 1.08368,0.47288 1.08368,1.320121 l 0,3.172231 c 0,0.265994 0.18718,0.394066 0.45317,0.394066 0.266,0 0.46303,-0.128072 0.46303,-0.394066 l 0,-3.369264" /></g></g></svg>